<svg xmlns="http://www.w3.org/2000/svg" xmlns:xlink="http://www.w3.org/1999/xlink" aria-hidden="true" width="22" height="22" style="-ms-transform: rotate(360deg); -webkit-transform: rotate(360deg); transform: rotate(360deg);" preserveAspectRatio="xMidYMid meet" viewBox="0 0 680 810"><path d="M341 537q3 1 4 4t-1 6l-83 83q-20 20-46 32t-53 14-54-4-49-25q-27-21-42-51T1 536t9-61 34-54l129-129q31-31 72-46t84-8q38 6 60 22t35 37q2 5-.5 7.5T418 309t-7 6l-7 7q-10 11-24 11t-25.5-11.5T329 304t-31-5-30 5-27 18L93 470q-13 13-19 30t-4 34 10 34 26 27q25 17 54 12t49-24l64-63q2-3 6-1 30 13 62 18zM619 31q27 21 42 50t17 60-9 62-35 54L505 386q-31 31-72 45t-85 8q-38-5-59-22t-35-37q-2-4 1-7l18-18q11-10 25-10t24 10q12 12 27 18t31 6 31-6 26-18l148-147q13-13 19-31t4-35-11-33-26-27q-24-16-53-12t-50 25l-63 63q-3 3-6 1-28-12-62-19-4 0-4-4t1-5l83-83q20-20 46-32t52-15 54 5 50 25z" fill="#d2d8d8"/></svg>
